<svg width="19" height="25" viewBox="0 0 19 25" fill="none" xmlns="http://www.w3.org/2000/svg">
<path d="M5.52326 25C5.23256 25 4.88857 24.8643 4.49128 24.593C4.09399 24.3217 3.69186 23.9341 3.28488 23.4302L0 19.3895L0.901163 18.6337L2.64535 20.7849L5.81395 18.4302L7.90698 7.87791L4.94186 9.21512V13.0814H3.1686V8.05233L8.31395 5.87209C8.66279 5.71705 8.95833 5.61047 9.20058 5.55233C9.44283 5.49419 9.72868 5.46512 10.0581 5.46512C10.407 5.46512 10.7607 5.54748 11.1192 5.71221C11.4777 5.87694 11.7539 6.11434 11.9477 6.42442L13.1686 8.34302C13.7888 9.31202 14.53 10.0484 15.3924 10.5523C16.2548 11.0562 17.2287 11.3178 18.314 11.3372V13.0814C16.9767 13.0426 15.8285 12.7519 14.8692 12.2093C13.9099 11.6667 12.9554 10.7752 12.0058 9.53488L10.814 14.0698L13.4884 16.4826V23.8663C14.0504 23.8275 14.5349 23.7403 14.9419 23.6047C15.3488 23.469 15.6783 23.3333 15.9302 23.1977C15.9884 23.1589 16.0465 23.1347 16.1047 23.125C16.1628 23.1153 16.2112 23.1105 16.25 23.1105C16.4438 23.1105 16.594 23.1686 16.7006 23.2849C16.8072 23.4012 16.8605 23.5368 16.8605 23.6919C16.8605 23.7888 16.8362 23.8857 16.7878 23.9826C16.7393 24.0795 16.6667 24.157 16.5698 24.2151C16.2209 24.4283 15.8236 24.6124 15.3779 24.7674C14.9322 24.9225 14.4089 25 13.8081 25H9.59302V23.8372H11.7442V18.0233L8.60465 15.1744L7.61628 19.3605L3.75 22.1802L4.30233 22.8198C4.5155 23.0523 4.74322 23.2558 4.98547 23.4302C5.22771 23.6047 5.4845 23.75 5.75581 23.8663C5.87209 23.9244 5.96415 24.0019 6.03198 24.0988C6.09981 24.1957 6.13372 24.312 6.13372 24.4477C6.13372 24.6027 6.07074 24.7335 5.94477 24.8401C5.8188 24.9467 5.67829 25 5.52326 25ZM12.1221 4.24419C11.5407 4.24419 11.0417 4.03585 10.625 3.61919C10.2083 3.20252 10 2.70349 10 2.12209C10 1.5407 10.2083 1.04167 10.625 0.625C11.0417 0.208333 11.5407 0 12.1221 0C12.7035 0 13.2025 0.208333 13.6192 0.625C14.0359 1.04167 14.2442 1.5407 14.2442 2.12209C14.2442 2.70349 14.0359 3.20252 13.6192 3.61919C13.2025 4.03585 12.7035 4.24419 12.1221 4.24419Z" fill="#F3F6F9"/>
</svg>
