<svg width="42" height="38" viewBox="0 0 42 38" fill="none" xmlns="http://www.w3.org/2000/svg">
<path d="M0 38V35H8V29.5H2V0H20V9C20 10.0141 20.225 10.9343 20.675 11.7606C21.125 12.5869 21.8333 13.1333 22.8 13.4L28.55 14.85C30.15 15.25 31.4583 16.1157 32.475 17.4471C33.4917 18.7785 34 20.29 34 21.9816V29.5H28V35H32.5C34.3056 35 35.8403 34.368 37.1042 33.1042C38.368 31.8403 39 30.3056 39 28.5H42C42 31 41.0417 33.2083 39.125 35.125C37.2083 37.0417 35 38 32.5 38H0ZM5 26.5H31V21.9767C31 20.9589 30.6917 20.0667 30.075 19.3C29.4583 18.5333 28.6737 18.0167 27.721 17.75L21.95 16.25C20.6833 15.8833 19.725 15.3083 19.075 14.525C18.425 13.7417 17.9167 12.8167 17.55 11.75H12.8C12.6 11.75 12.425 11.675 12.275 11.525C12.125 11.375 12.05 11.2 12.05 11C12.05 10.8 12.125 10.625 12.275 10.475C12.425 10.325 12.6 10.25 12.8 10.25H17.1C17.0333 9.81667 17 9.40833 17 9.025V7.75H12.8C12.6 7.75 12.425 7.675 12.275 7.525C12.125 7.375 12.05 7.2 12.05 7C12.05 6.8 12.125 6.625 12.275 6.475C12.425 6.325 12.6 6.25 12.8 6.25H17V3H5V26.5ZM11 35H25V29.5H11V35Z" fill="#5CA9D8"/>
</svg>
