<svg width="30" height="23" viewBox="0 0 30 23" fill="none" xmlns="http://www.w3.org/2000/svg">
<path d="M2.39637 21.2829L2.06781 20.7079L1 21.2829L1.32856 21.8579L2.39637 21.2829Z" fill="black" stroke="black"/>
<path d="M27.199 13.4779L23.8313 9.94592C23.5848 10.5209 21.6957 12.8208 19.56 11.9173C17.4244 11.0137 17.5066 9.20667 17.753 7.97458C17.9501 6.98891 18.7113 6.35917 19.0672 6.16751L12.8246 0.746319C11.5925 0.00706691 10.5247 1.48558 11.264 2.30697L17.5066 8.221L9.78544 15.2675L9 14L10.1962 13L9.78544 12.5L8.5 13C7 12.5 6.50001 14.0345 6.5 14.5L3.16482 16.3528L3.5 17L7 15L7.64984 16.3528L2.88573 19.1455C1.7358 20.1312 3.13224 22.1847 4.44638 21.3633L9.78543 18.1599L11.1818 19.1455C11.9046 19.4084 12.5234 19.2551 12.7425 19.1455L16.1102 17.2563L20.9564 12.8208L25.3098 14.71L26.7883 21.3633C27.3633 22.9239 29.4167 22.1847 28.9239 20.8705L27.199 13.4779Z" fill="black" stroke="black"/>
<ellipse cx="20.7923" cy="8.878" rx="2.46418" ry="2.46418" fill="black"/>
</svg>
