<svg width="44" height="30" viewBox="0 0 44 30" fill="none" xmlns="http://www.w3.org/2000/svg">
<path d="M0 29.25V0H3V19.7H20.65V4.25H36.75C38.7437 4.25 40.4505 4.9599 41.8703 6.3797C43.2901 7.7995 44 9.50627 44 11.5V29.25H41V22.7H3V29.25H0ZM11.5 16.8C10 16.8 8.74167 16.2917 7.725 15.275C6.70833 14.2583 6.2 13 6.2 11.5C6.2 10 6.70833 8.74167 7.725 7.725C8.74167 6.70833 10 6.2 11.5 6.2C13 6.2 14.2583 6.70833 15.275 7.725C16.2917 8.74167 16.8 10 16.8 11.5C16.8 13 16.2917 14.2583 15.275 15.275C14.2583 16.2917 13 16.8 11.5 16.8ZM23.65 19.7H41V11.5C41 10.3313 40.5839 9.33075 39.7516 8.49845C38.9193 7.66615 37.9187 7.25 36.75 7.25H23.65V19.7ZM11.5 13.8C12.1333 13.8 12.675 13.575 13.125 13.125C13.575 12.675 13.8 12.1333 13.8 11.5C13.8 10.8667 13.575 10.325 13.125 9.875C12.675 9.425 12.1333 9.2 11.5 9.2C10.8667 9.2 10.325 9.425 9.875 9.875C9.425 10.325 9.2 10.8667 9.2 11.5C9.2 12.1333 9.425 12.675 9.875 13.125C10.325 13.575 10.8667 13.8 11.5 13.8Z" fill="#F3F6F9"/>
</svg>
