<svg width="40" height="40" viewBox="0 0 40 40" fill="none" xmlns="http://www.w3.org/2000/svg">
<path d="M23.5354 40L21.4141 37.8788L28.5859 30.7071L9.29293 11.4141L2.12121 18.5859L0 16.4646L2.82828 13.5354L0 10.7071L4.29293 6.41414L2.17172 4.29293L4.29293 2.17172L6.46465 4.24242L10.7071 0L13.5354 2.82828L16.4646 0L18.5859 2.12121L11.4141 9.29293L30.7071 28.5859L37.8788 21.4141L40 23.5354L37.1717 26.4646L40 29.2929L35.6566 33.6364L37.7778 35.7576L35.6566 37.8788L33.5354 35.7576L29.2929 40L26.4646 37.1717L23.5354 40Z" fill="#5CA9D8"/>
</svg>
