<svg width="23" height="25" viewBox="0 0 23 25" fill="none" xmlns="http://www.w3.org/2000/svg">
<path d="M2.27273 16.7614V0H12.5V5.11364C12.5 5.68983 12.6278 6.21266 12.8835 6.68213C13.1392 7.15162 13.5417 7.46212 14.0909 7.61364L17.358 8.4375C18.267 8.66477 19.0104 9.15664 19.5881 9.9131C20.1657 10.6696 20.4545 11.5284 20.4545 12.4895V16.7614H2.27273ZM3.97727 15.0568H18.75V12.4867C18.75 11.9085 18.5748 11.4015 18.2244 10.9659C17.8741 10.5303 17.4282 10.2367 16.8869 10.0852L13.608 9.23295C12.8883 9.02462 12.3438 8.69792 11.9744 8.25284C11.6051 7.80777 11.3163 7.2822 11.108 6.67614H8.40909C8.29545 6.67614 8.19602 6.63352 8.1108 6.5483C8.02557 6.46307 7.98295 6.36364 7.98295 6.25C7.98295 6.13636 8.02557 6.03693 8.1108 5.9517C8.19602 5.86648 8.29545 5.82386 8.40909 5.82386H10.8523C10.8144 5.57765 10.7955 5.34564 10.7955 5.12784V4.40341H8.40909C8.29545 4.40341 8.19602 4.3608 8.1108 4.27557C8.02557 4.19034 7.98295 4.09091 7.98295 3.97727C7.98295 3.86364 8.02557 3.7642 8.1108 3.67898C8.19602 3.59375 8.29545 3.55114 8.40909 3.55114H10.7955V1.70455H3.97727V15.0568ZM3.125 25C2.27273 25 1.53883 24.6922 0.923295 24.0767C0.307765 23.4612 0 22.7225 0 21.8608C0 20.9991 0.307765 20.2652 0.923295 19.6591C1.53883 19.053 2.27746 18.75 3.1392 18.75C4.00095 18.75 4.73485 19.0538 5.34091 19.6614C5.94697 20.2691 6.25 21.007 6.25 21.875C6.25 22.7273 5.94618 23.4612 5.33855 24.0767C4.7309 24.6922 3.99305 25 3.125 25ZM3.1392 23.2955C3.52746 23.2955 3.8589 23.1534 4.13352 22.8693C4.40814 22.5852 4.54545 22.2491 4.54545 21.8608C4.54545 21.4725 4.40933 21.1411 4.13707 20.8665C3.86482 20.5919 3.52746 20.4545 3.125 20.4545C2.74621 20.4545 2.41477 20.5907 2.13068 20.8629C1.84659 21.1352 1.70455 21.4725 1.70455 21.875C1.70455 22.2538 1.84659 22.5852 2.13068 22.8693C2.41477 23.1534 2.75095 23.2955 3.1392 23.2955ZM19.6023 25C18.75 25 18.0161 24.6922 17.4006 24.0767C16.785 23.4612 16.4773 22.7225 16.4773 21.8608C16.4773 20.9991 16.785 20.2652 17.4006 19.6591C18.0161 19.053 18.7547 18.75 19.6165 18.75C20.4782 18.75 21.2121 19.0538 21.8182 19.6614C22.4242 20.2691 22.7273 21.007 22.7273 21.875C22.7273 22.7273 22.4235 23.4612 21.8158 24.0767C21.2082 24.6922 20.4703 25 19.6023 25ZM19.6165 23.2955C20.0047 23.2955 20.3362 23.1534 20.6108 22.8693C20.8854 22.5852 21.0227 22.2491 21.0227 21.8608C21.0227 21.4725 20.8866 21.1411 20.6143 20.8665C20.3421 20.5919 20.0047 20.4545 19.6023 20.4545C19.2235 20.4545 18.892 20.5907 18.608 20.8629C18.3239 21.1352 18.1818 21.4725 18.1818 21.875C18.1818 22.2538 18.3239 22.5852 18.608 22.8693C18.892 23.1534 19.2282 23.2955 19.6165 23.2955ZM11.3636 25C10.5114 25 9.77746 24.6922 9.16193 24.0767C8.5464 23.4612 8.23864 22.7225 8.23864 21.8608C8.23864 20.9991 8.5464 20.2652 9.16193 19.6591C9.77746 19.053 10.5161 18.75 11.3778 18.75C12.2396 18.75 12.9735 19.0538 13.5795 19.6614C14.1856 20.2691 14.4886 21.007 14.4886 21.875C14.4886 22.7273 14.1848 23.4612 13.5772 24.0767C12.9695 24.6922 12.2317 25 11.3636 25ZM11.3778 23.2955C11.7661 23.2955 12.0975 23.1534 12.3722 22.8693C12.6468 22.5852 12.7841 22.2491 12.7841 21.8608C12.7841 21.4725 12.648 21.1411 12.3757 20.8665C12.1035 20.5919 11.7661 20.4545 11.3636 20.4545C10.9848 20.4545 10.6534 20.5907 10.3693 20.8629C10.0852 21.1352 9.94318 21.4725 9.94318 21.875C9.94318 22.2538 10.0852 22.5852 10.3693 22.8693C10.6534 23.1534 10.9896 23.2955 11.3778 23.2955Z" fill="#F3F6F9"/>
</svg>
