<svg width="119" height="20" viewBox="0 0 119 20" fill="none" xmlns="http://www.w3.org/2000/svg">
<path d="M9.07138 4.09091C8.98615 3.37121 8.64051 2.8125 8.03445 2.41477C7.42839 2.01705 6.68501 1.81818 5.80433 1.81818C5.16039 1.81818 4.59695 1.92235 4.11399 2.13068C3.63577 2.33901 3.26172 2.62547 2.99183 2.99006C2.72668 3.35464 2.59411 3.76894 2.59411 4.23295C2.59411 4.62121 2.68643 4.95502 2.87109 5.23438C3.06049 5.509 3.30196 5.73864 3.59553 5.9233C3.88909 6.10322 4.19685 6.25237 4.51882 6.37074C4.84079 6.48437 5.13672 6.5767 5.40661 6.64773L6.88388 7.04545C7.26267 7.14489 7.68407 7.2822 8.14808 7.45739C8.61683 7.63258 9.06428 7.87169 9.49041 8.17472C9.92128 8.47301 10.2764 8.85653 10.5558 9.32528C10.8351 9.79403 10.9748 10.3693 10.9748 11.0511C10.9748 11.8371 10.7688 12.5473 10.3569 13.1818C9.94969 13.8163 9.3531 14.3205 8.56712 14.6946C7.78587 15.0687 6.83653 15.2557 5.71911 15.2557C4.67744 15.2557 3.77545 15.0876 3.01314 14.7514C2.25556 14.4152 1.65897 13.9465 1.22337 13.3452C0.792495 12.7438 0.548651 12.0455 0.491832 11.25H2.31001C2.35736 11.7992 2.54202 12.2538 2.86399 12.6136C3.1907 12.9687 3.60263 13.2339 4.09979 13.4091C4.60168 13.5795 5.14145 13.6648 5.71911 13.6648C6.39145 13.6648 6.99515 13.5559 7.53018 13.3381C8.06522 13.1155 8.48899 12.8078 8.80149 12.4148C9.11399 12.017 9.27024 11.553 9.27024 11.0227C9.27024 10.5398 9.1353 10.1468 8.86541 9.84375C8.59553 9.54072 8.24041 9.29451 7.80007 9.10511C7.35973 8.91572 6.88388 8.75 6.37251 8.60795L4.58274 8.09659C3.44638 7.76989 2.54676 7.3035 1.88388 6.69744C1.221 6.09138 0.88956 5.2983 0.88956 4.31818C0.88956 3.50379 1.10973 2.79356 1.55007 2.1875C1.99515 1.5767 2.59174 1.10322 3.33984 0.767045C4.09268 0.426136 4.93312 0.255681 5.86115 0.255681C6.79865 0.255681 7.63198 0.423768 8.36115 0.759943C9.09032 1.09138 9.66797 1.54593 10.0941 2.12358C10.525 2.70123 10.7522 3.35701 10.7759 4.09091H9.07138ZM13.6435 19.0909V4.09091H15.2628V5.82386H15.4616C15.5848 5.63447 15.7552 5.39299 15.973 5.09943C16.1955 4.80114 16.5128 4.53598 16.9247 4.30398C17.3414 4.06723 17.9048 3.94886 18.6151 3.94886C19.5336 3.94886 20.3433 4.1785 21.044 4.63778C21.7448 5.09706 22.2917 5.74811 22.6847 6.59091C23.0777 7.43371 23.2741 8.42803 23.2741 9.57386C23.2741 10.7292 23.0777 11.7306 22.6847 12.5781C22.2917 13.4209 21.7472 14.0743 21.0511 14.5384C20.3551 14.9976 19.5526 15.2273 18.6435 15.2273C17.9427 15.2273 17.3816 15.1113 16.9602 14.8793C16.5388 14.6425 16.2145 14.375 15.9872 14.0767C15.7599 13.7737 15.5848 13.5227 15.4616 13.3239H15.3196V19.0909H13.6435ZM15.2912 9.54545C15.2912 10.3693 15.4119 11.0961 15.6534 11.7259C15.8949 12.3509 16.2476 12.8409 16.7116 13.196C17.1757 13.5464 17.7438 13.7216 18.4162 13.7216C19.117 13.7216 19.7017 13.5369 20.1705 13.1676C20.6439 12.7936 20.9991 12.2917 21.2358 11.6619C21.4773 11.0275 21.598 10.322 21.598 9.54545C21.598 8.77841 21.4796 8.08712 21.2429 7.47159C21.0109 6.85133 20.6581 6.36127 20.1847 6.00142C19.7159 5.63684 19.1264 5.45455 18.4162 5.45455C17.7344 5.45455 17.1615 5.62737 16.6974 5.97301C16.2334 6.31392 15.883 6.79214 15.6463 7.40767C15.4096 8.01847 15.2912 8.73106 15.2912 9.54545ZM30.2628 15.2273C29.2779 15.2273 28.4138 14.9929 27.6705 14.5241C26.9318 14.0554 26.3542 13.3996 25.9375 12.5568C25.5256 11.714 25.3196 10.7292 25.3196 9.60227C25.3196 8.46591 25.5256 7.47396 25.9375 6.62642C26.3542 5.77888 26.9318 5.12074 27.6705 4.65199C28.4138 4.18324 29.2779 3.94886 30.2628 3.94886C31.2476 3.94886 32.1094 4.18324 32.848 4.65199C33.5914 5.12074 34.169 5.77888 34.581 6.62642C34.9976 7.47396 35.206 8.46591 35.206 9.60227C35.206 10.7292 34.9976 11.714 34.581 12.5568C34.169 13.3996 33.5914 14.0554 32.848 14.5241C32.1094 14.9929 31.2476 15.2273 30.2628 15.2273ZM30.2628 13.7216C31.0109 13.7216 31.6264 13.5298 32.1094 13.1463C32.5923 12.7628 32.9498 12.2585 33.1818 11.6335C33.4138 11.0085 33.5298 10.3314 33.5298 9.60227C33.5298 8.87311 33.4138 8.19366 33.1818 7.56392C32.9498 6.93419 32.5923 6.42519 32.1094 6.03693C31.6264 5.64867 31.0109 5.45455 30.2628 5.45455C29.5147 5.45455 28.8991 5.64867 28.4162 6.03693C27.9332 6.42519 27.5758 6.93419 27.3438 7.56392C27.1117 8.19366 26.9957 8.87311 26.9957 9.60227C26.9957 10.3314 27.1117 11.0085 27.3438 11.6335C27.5758 12.2585 27.9332 12.7628 28.4162 13.1463C28.8991 13.5298 29.5147 13.7216 30.2628 13.7216ZM37.7646 15V4.09091H39.3839V5.73864H39.4975C39.6964 5.19886 40.0562 4.76089 40.5771 4.42472C41.0979 4.08854 41.685 3.92045 42.3384 3.92045C42.4615 3.92045 42.6154 3.92282 42.8001 3.92756C42.9847 3.93229 43.1244 3.93939 43.2191 3.94886V5.65341C43.1623 5.6392 43.0321 5.6179 42.8285 5.58949C42.6296 5.55634 42.4189 5.53977 42.1964 5.53977C41.6661 5.53977 41.1926 5.65104 40.7759 5.87358C40.364 6.09138 40.0373 6.39441 39.7958 6.78267C39.5591 7.16619 39.4407 7.60417 39.4407 8.09659V15H37.7646ZM50.6339 4.09091V5.51136H44.9805V4.09091H50.6339ZM46.6282 1.47727H48.3043V11.875C48.3043 12.3485 48.373 12.7036 48.5103 12.9403C48.6523 13.1723 48.8323 13.3286 49.0501 13.4091C49.2726 13.4848 49.507 13.5227 49.7532 13.5227C49.9379 13.5227 50.0894 13.5133 50.2077 13.4943C50.3261 13.4706 50.4208 13.4517 50.4918 13.4375L50.8327 14.9432C50.7191 14.9858 50.5605 15.0284 50.3569 15.071C50.1533 15.1184 49.8952 15.142 49.5827 15.142C49.1093 15.142 48.6452 15.0402 48.1907 14.8366C47.7409 14.633 47.3668 14.3229 47.0685 13.9062C46.775 13.4896 46.6282 12.964 46.6282 12.3295V1.47727ZM63.4961 15H59.0075V0.454545H63.695C65.1059 0.454545 66.3133 0.745738 67.3171 1.32812C68.3209 1.90578 69.0903 2.73674 69.6254 3.82102C70.1604 4.90057 70.4279 6.19318 70.4279 7.69886C70.4279 9.21401 70.158 10.5185 69.6183 11.6122C69.0785 12.7012 68.2925 13.5393 67.2603 14.1264C66.2281 14.7088 64.9734 15 63.4961 15ZM60.7688 13.4375H63.3825C64.5851 13.4375 65.5818 13.2055 66.3725 12.7415C67.1632 12.2775 67.7527 11.617 68.141 10.7599C68.5292 9.90294 68.7234 8.88258 68.7234 7.69886C68.7234 6.52462 68.5316 5.51373 68.1481 4.66619C67.7646 3.81392 67.1916 3.16051 66.4293 2.70597C65.667 2.24669 64.7177 2.01705 63.5813 2.01705H60.7688V13.4375ZM76.3654 15.2557C75.6741 15.2557 75.0468 15.1255 74.4833 14.8651C73.9199 14.5999 73.4724 14.2188 73.141 13.7216C72.8095 13.2197 72.6438 12.6136 72.6438 11.9034C72.6438 11.2784 72.7669 10.7718 73.0131 10.3835C73.2594 9.99053 73.5884 9.68276 74.0004 9.46023C74.4123 9.23769 74.8668 9.07197 75.364 8.96307C75.8659 8.84943 76.3701 8.75947 76.8768 8.69318C77.5397 8.60795 78.0771 8.54403 78.489 8.50142C78.9057 8.45407 79.2087 8.37595 79.3981 8.26705C79.5922 8.15814 79.6893 7.96875 79.6893 7.69886V7.64205C79.6893 6.94129 79.4975 6.39678 79.114 6.00852C78.7352 5.62027 78.1599 5.42614 77.3881 5.42614C76.5879 5.42614 75.9606 5.60133 75.506 5.9517C75.0515 6.30208 74.7319 6.67614 74.5472 7.07386L72.9563 6.50568C73.2404 5.8428 73.6192 5.3267 74.0927 4.95739C74.5709 4.58333 75.0917 4.32292 75.6552 4.17614C76.2234 4.02462 76.7821 3.94886 77.3313 3.94886C77.6817 3.94886 78.0842 3.99148 78.5387 4.0767C78.998 4.1572 79.4407 4.32528 79.8668 4.58097C80.2977 4.83665 80.6552 5.22254 80.9393 5.73864C81.2234 6.25473 81.3654 6.94602 81.3654 7.8125V15H79.6893V13.5227H79.604C79.4904 13.7595 79.301 14.0128 79.0359 14.2827C78.7707 14.5526 78.418 14.7822 77.9776 14.9716C77.5373 15.161 76.9999 15.2557 76.3654 15.2557ZM76.6211 13.75C77.284 13.75 77.8427 13.6198 78.2972 13.3594C78.7565 13.099 79.1022 12.7628 79.3342 12.3509C79.5709 11.9389 79.6893 11.5057 79.6893 11.0511V9.51705C79.6183 9.60227 79.462 9.6804 79.2205 9.75142C78.9838 9.81771 78.7092 9.87689 78.3967 9.92898C78.0889 9.97633 77.7882 10.0189 77.4947 10.0568C77.2058 10.09 76.9715 10.1184 76.7915 10.142C76.3559 10.1989 75.9487 10.2912 75.57 10.419C75.1959 10.5421 74.8929 10.7292 74.6609 10.9801C74.4336 11.2263 74.32 11.5625 74.32 11.9886C74.32 12.571 74.5354 13.0114 74.9663 13.3097C75.4019 13.6032 75.9535 13.75 76.6211 13.75ZM89.169 4.09091V5.51136H83.5156V4.09091H89.169ZM85.1634 1.47727H86.8395V11.875C86.8395 12.3485 86.9081 12.7036 87.0455 12.9403C87.1875 13.1723 87.3674 13.3286 87.5852 13.4091C87.8078 13.4848 88.0421 13.5227 88.2884 13.5227C88.473 13.5227 88.6245 13.5133 88.7429 13.4943C88.8613 13.4706 88.956 13.4517 89.027 13.4375L89.3679 14.9432C89.2543 14.9858 89.0956 15.0284 88.892 15.071C88.6884 15.1184 88.4304 15.142 88.1179 15.142C87.6444 15.142 87.1804 15.0402 86.7259 14.8366C86.276 14.633 85.902 14.3229 85.6037 13.9062C85.3101 13.4896 85.1634 12.964 85.1634 12.3295V1.47727ZM94.9006 15.2557C94.2093 15.2557 93.5819 15.1255 93.0185 14.8651C92.455 14.5999 92.0076 14.2188 91.6761 13.7216C91.3447 13.2197 91.179 12.6136 91.179 11.9034C91.179 11.2784 91.3021 10.7718 91.5483 10.3835C91.7945 9.99053 92.1236 9.68276 92.5355 9.46023C92.9474 9.23769 93.402 9.07197 93.8991 8.96307C94.401 8.84943 94.9053 8.75947 95.4119 8.69318C96.0748 8.60795 96.6122 8.54403 97.0241 8.50142C97.4408 8.45407 97.7438 8.37595 97.9332 8.26705C98.1274 8.15814 98.2244 7.96875 98.2244 7.69886V7.64205C98.2244 6.94129 98.0327 6.39678 97.6491 6.00852C97.2704 5.62027 96.6951 5.42614 95.9233 5.42614C95.1231 5.42614 94.4957 5.60133 94.0412 5.9517C93.5866 6.30208 93.267 6.67614 93.0824 7.07386L91.4915 6.50568C91.7756 5.8428 92.1544 5.3267 92.6278 4.95739C93.1061 4.58333 93.6269 4.32292 94.1903 4.17614C94.7585 4.02462 95.3172 3.94886 95.8665 3.94886C96.2169 3.94886 96.6193 3.99148 97.0739 4.0767C97.5331 4.1572 97.9759 4.32528 98.402 4.58097C98.8329 4.83665 99.1903 5.22254 99.4744 5.73864C99.7585 6.25473 99.9006 6.94602 99.9006 7.8125V15H98.2244V13.5227H98.1392C98.0256 13.7595 97.8362 14.0128 97.571 14.2827C97.3059 14.5526 96.9531 14.7822 96.5128 14.9716C96.0724 15.161 95.535 15.2557 94.9006 15.2557ZM95.1562 13.75C95.8191 13.75 96.3778 13.6198 96.8324 13.3594C97.2917 13.099 97.6373 12.7628 97.8693 12.3509C98.1061 11.9389 98.2244 11.5057 98.2244 11.0511V9.51705C98.1534 9.60227 97.9972 9.6804 97.7557 9.75142C97.5189 9.81771 97.2443 9.87689 96.9318 9.92898C96.6241 9.97633 96.3234 10.0189 96.0298 10.0568C95.741 10.09 95.5066 10.1184 95.3267 10.142C94.8911 10.1989 94.4839 10.2912 94.1051 10.419C93.7311 10.5421 93.428 10.7292 93.196 10.9801C92.9688 11.2263 92.8551 11.5625 92.8551 11.9886C92.8551 12.571 93.0705 13.0114 93.5014 13.3097C93.937 13.6032 94.4886 13.75 95.1562 13.75Z" fill="#F3F6F9"/>
<path d="M112.576 14.2116V4.15483H115.119V14.2116H112.576ZM108.819 10.4545V7.91193H118.876V10.4545H108.819Z" fill="#5CA9D8"/>
</svg>
